:SAMPLES-PER-SECOND 30
:FULLY-SPECIFIED
:DEGREES
63
root  6.08043 39.2688 -40.0595 144.608 -82.209 -148.562
RightUpLeg  14.0417 -8.29234 -1.13709
RightLeg  12.0622 -1.08934 3.47712
RightFoot  -17.6948 -0.0646678 1.00158
RightToes  -1.74624e-010 0 -3.6325e-017
Spine  1.82217 1.48494 12.9442
Spine1  12.7014 3.66208 -6.87702
HEad  -9.12486 1.57333 -5.33033
LeftShoulder1  8.65695 -12.1794 -48.1804
LeftArm  -6.52869 24.1966 -25.0088
LeftForeArm  26.136 -10.7519 -5.83311
LeftHand  -0.244104 0.0205437 5.32207
RightShoulder  6.489 10.1433 41.33
RightArm  8.59507 -0.634087 31.492
RightForeArm  -1.33384 41.0518 9.83742
RightHand  -1.18194 2.09406 -18.4018
LeftUpLeg  -18.0226 4.41228 3.69061
LeftLeg  -5.72501 24.8257 -8.524
LeftFoot  -1.7752 0.411951 -4.84126
LeftToes  1.71891e-010 -1.5102e-010 2.10556e-011
64
root  4.15278 38.8026 -40.0114 140.323 -81.7342 -144.457
RightUpLeg  16.9411 -9.39495 -1.85167
RightLeg  13.5482 0.621336 3.44631
RightFoot  -19.2017 0.0611993 2.79143
RightToes  -1.74624e-010 0 -3.6325e-017
Spine  1.13818 1.56997 13.9887
Spine1  13.197 3.99802 -7.86481
HEad  -8.8894 1.69557 -5.05674
LeftShoulder1  8.50728 -12.0303 -47.7963
LeftArm  -7.79394 26.1397 -25.1224
LeftForeArm  25.7941 -9.65525 -5.58405
LeftHand  -0.244104 0.0205437 5.32207
RightShoulder  6.45854 10.0442 41.4453
RightArm  8.11982 -0.426357 32.0575
RightForeArm  -1.3151 40.2511 9.56523
RightHand  -1.24149 2.37461 -18.6352
LeftUpLeg  -18.4395 4.97312 3.4597
LeftLeg  -7.07888 28.6851 -9.95759
LeftFoot  -2.82016 0.461933 -5.94023
LeftToes  1.71891e-010 -1.5102e-010 2.10556e-011
65
root  2.18205 38.4394 -39.9808 140.185 -82.0824 -144.191
RightUpLeg  19.4489 -11.4138 -3.89987
RightLeg  15.2694 3.64564 3.24459
RightFoot  -19.6779 0.245359 5.14279
RightToes  -1.74624e-010 0 -3.6325e-017
Spine  -0.0656875 1.80803 12.8332
Spine1  14.121 4.26527 -7.77115
HEad  -8.55716 1.85318 -4.64976
LeftShoulder1  8.3579 -11.8105 -47.6282
LeftArm  -8.84714 27.97 -25.3256
LeftForeArm  25.1815 -9.19109 -5.23273
LeftHand  -0.244104 0.0205437 5.32207
RightShoulder  6.49093 10.014 41.7685
RightArm  7.59009 -1.21403 32.1858
RightForeArm  -1.78831 38.4928 9.02098
RightHand  -1.30616 2.77198 -18.6629
LeftUpLeg  -19.1263 5.35118 2.26202
LeftLeg  -4.42245 31.4433 -9.8758
LeftFoot  -0.552803 0.05877 -0.812751
LeftToes  1.71891e-010 -1.5102e-010 2.10556e-011
66
root  0.162471 38.1542 -39.9649 143.515 -83.5252 -147.672
RightUpLeg  21.3474 -13.6481 -7.35193
RightLeg  18.8189 7.58153 3.28851
RightFoot  -18.5542 0.46207 9.45751
RightToes  -1.74624e-010 0 -3.6325e-017
Spine  -1.05956 2.04133 9.17508
Spine1  14.707 4.05255 -6.2065
HEad  -8.14326 1.88988 -3.88182
LeftShoulder1  8.28146 -11.5974 -47.8595
LeftArm  -9.78085 29.5783 -25.191
LeftForeArm  23.9833 -9.19429 -4.87343
LeftHand  -0.244104 0.0205437 5.32207
RightShoulder  6.63281 10.0528 42.6151
RightArm  7.17664 -2.80496 31.8993
RightForeArm  -2.44968 35.272 8.09268
RightHand  -1.40719 3.32066 -18.8424
LeftUpLeg  -21.4945 8.81034 -1.6348
LeftLeg  4.58599 27.7549 -5.51101
LeftFoot  2.55628 -0.943488 7.61153
LeftToes  1.71891e-010 -1.5102e-010 2.10556e-011
67
root  -1.82443 37.9821 -39.9048 148.75 -85.9876 -153.56
RightUpLeg  20.8961 -12.9746 -9.94614
RightLeg  26.4871 7.88242 3.91508
RightFoot  -12.7555 0.0687388 14.2123
RightToes  -1.74624e-010 0 -3.6325e-017
Spine  -1.05151 1.92076 4.96322
Spine1  14.3314 3.39204 -4.40532
HEad  -7.69161 1.2388 -2.666
LeftShoulder1  8.30826 -11.5542 -48.1549
LeftArm  -10.6619 30.352 -24.8636
LeftForeArm  22.3013 -9.03721 -4.54635
LeftHand  -0.244104 0.0205437 5.32207
RightShoulder  6.76238 10.0586 43.4796
RightArm  7.30821 -4.73263 32.2753
RightForeArm  -4.38737 29.6751 6.60072
RightHand  -1.61885 4.29471 -19.4987
LeftUpLeg  -24.1444 19.2121 -10.0122
LeftLeg  14.0428 13.3069 1.12521
LeftFoot  3.66988 -1.89959 14.2708
LeftToes  1.71891e-010 -1.5102e-010 2.10556e-011
68
root  -3.62658 37.9955 -39.7426 131.022 -88.7799 -136.469
RightUpLeg  16.3996 -10.246 -10.9762
RightLeg  38.1571 5.47352 4.32119
RightFoot  -0.690967 -1.50557 16.272
RightToes  -1.74624e-010 0 -3.6325e-017
Spine  -0.316677 1.66188 2.43109
Spine1  13.614 3.08961 -4.17456
HEad  -7.07047 -0.264881 -1.74656
LeftShoulder1  8.36805 -11.6834 -48.0897
LeftArm  -11.5546 29.7527 -24.8876
LeftForeArm  20.8778 -8.63243 -4.26749
LeftHand  -0.244104 0.0205437 5.32207
RightShoulder  6.81185 10.0676 43.7843
RightArm  6.66203 -6.46178 33.5774
RightForeArm  -6.47659 21.6519 5.72376
RightHand  -1.76594 5.02326 -19.7983
LeftUpLeg  -24.0064 19.9966 -13.7847
LeftLeg  19.133 9.51687 4.35089
LeftFoot  1.78413 -2.01273 17.2526
LeftToes  1.71891e-010 -1.5102e-010 2.10556e-011
69
root  -5.16548 38.0908 -39.5024 -115.917 -88.9997 110.113
RightUpLeg  8.75746 -6.32699 -11.2086
RightLeg  50.6483 3.25315 3.88247
RightFoot  10.6283 -2.85254 15.0524
RightToes  -1.74624e-010 0 -3.6325e-017
Spine  0.516098 1.83891 1.49891
Spine1  13.4127 3.55111 -5.55967
HEad  -6.09837 -1.99621 -1.92839
LeftShoulder1  8.37678 -11.7787 -47.8369
LeftArm  -12.4334 28.0646 -25.4106
LeftForeArm  20.4179 -9.01338 -4.10902
LeftHand  -0.244104 0.0205437 5.32207
RightShoulder  6.90031 10.226 43.8435
RightArm  0.201735 -7.58901 34.2837
RightForeArm  -0.625289 12.4371 7.73573
RightHand  -1.54164 4.32311 -18.5062
LeftUpLeg  -21.7598 17.2879 -14.443
LeftLeg  21.7492 11.8221 5.46232
LeftFoot  -1.53624 -1.5161 17.594
LeftToes  1.71891e-010 -1.5102e-010 2.10556e-011
70
root  -6.62843 38.3024 -39.2249 -76.0062 -88.0738 69.7808
RightUpLeg  0.857929 -2.25717 -11.0934
RightLeg  60.8349 1.26136 1.90837
RightFoot  13.8399 -2.61944 12.0558
RightToes  -1.74624e-010 0 -3.6325e-017
Spine  1.29727 2.1426 1.22444
Spine1  13.484 4.01532 -6.68994
HEad  -4.92442 -3.29109 -2.9798
LeftShoulder1  8.34686 -11.714 -47.8691
LeftArm  -12.8289 26.1216 -26.0548
LeftForeArm  20.7244 -11.282 -4.10411
LeftHand  -0.244104 0.0205437 5.32207
RightShoulder  7.09093 10.491 44.2198
RightArm  -3.25845 -8.46971 33.8339
RightForeArm  7.30742 5.75505 8.39217
RightHand  -1.13131 2.73562 -16.3049
LeftUpLeg  -18.5858 17.1438 -15.1098
LeftLeg  21.9648 11.9331 5.58712
LeftFoot  -4.2021 -1.04447 17.0221
LeftToes  1.71891e-010 -1.5102e-010 2.10556e-011
71
root  -8.13539 38.7396 -38.8918 -40.1872 -86.9806 33.3293
RightUpLeg  -5.34638 -0.126511 -10.4684
RightLeg  66.3108 -0.501651 -1.86424
RightFoot  11.4262 -1.62963 8.44984
RightToes  -1.74624e-010 0 -3.6325e-017
Spine  1.91776 1.68326 1.57945
Spine1  13.2685 3.52851 -6.39302
HEad  -3.84414 -4.24738 -3.97837
LeftShoulder1  8.33231 -11.6102 -48.1154
LeftArm  -12.036 24.3782 -26.6675
LeftForeArm  21.0103 -15.2828 -4.00626
LeftHand  -0.244104 0.0205437 5.32207
RightShoulder  7.20742 10.5912 44.6472
RightArm  -1.54523 -10.001 32.9649
RightForeArm  13.4597 3.91087 8.13219
RightHand  -0.92921 1.79457 -15.1502
LeftUpLeg  -13.8609 15.8987 -14.5033
LeftLeg  19.9973 11.6662 4.85387
LeftFoot  -5.39162 -0.832094 16.5206
LeftToes  1.71891e-010 -1.5102e-010 2.10556e-011
72
root  -9.56628 39.17 -38.546 -11.7847 -83.9347 4.49974
RightUpLeg  -10.3448 0.286641 -9.68971
RightLeg  67.1619 -1.59878 -4.84447
RightFoot  8.07893 -0.99668 6.16746
RightToes  -1.74624e-010 0 -3.6325e-017
Spine  2.34521 0.677782 1.88822
Spine1  12.9793 2.2266 -5.33238
HEad  -2.80018 -5.4491 -4.41746
LeftShoulder1  8.3237 -11.592 -48.1239
LeftArm  -10.6427 22.6592 -27.4635
LeftForeArm  21.6396 -19.8997 -3.7563
LeftHand  -0.244104 0.0205437 5.32207
RightShoulder  7.07013 10.3745 44.4702
RightArm  -0.335249 -12.8112 32.3736
RightForeArm  16.8201 5.7281 8.09752
RightHand  -0.912392 1.65615 -15.1433
LeftUpLeg  -9.19087 12.181 -13.2317
LeftLeg  17.8524 12.3121 3.89961
LeftFoot  -6.20077 -0.693361 16.1652
LeftToes  1.71891e-010 -1.5102e-010 2.10556e-011
73
root  -10.9389 39.4753 -38.2108 -3.05822 -79.8927 -4.47837
RightUpLeg  -14.5659 0.600212 -8.88752
RightLeg  64.2887 -2.08322 -5.34492
RightFoot  6.21147 -0.688941 4.73773
RightToes  -1.74624e-010 0 -3.6325e-017
Spine  2.63088 -0.255227 2.03209
Spine1  12.7287 0.831675 -4.05547
HEad  -1.70651 -7.11346 -4.40023
LeftShoulder1  8.29776 -11.6055 -47.9289
LeftArm  -9.98236 20.6807 -28.3495
LeftForeArm  23.5441 -24.4322 -3.94494
LeftHand  -0.244104 0.0205437 5.32207
RightShoulder  6.77258 9.99204 43.7743
RightArm  1.36599 -16.3675 32.0052
RightForeArm  13.5043 9.33375 8.19392
RightHand  -0.922216 1.74809 -15.1136
LeftUpLeg  -5.10634 8.32586 -11.8822
LeftLeg  16.135 12.5743 2.69864
LeftFoot  -7.40996 -0.515619 16.227
LeftToes  1.71891e-010 -1.5102e-010 2.10556e-011
74
root  -12.2983 39.7086 -37.8805 0.33076 -75.9617 -8.31161
RightUpLeg  -17.3985 1.47006 -8.15679
RightLeg  58.0567 -2.74174 -5.17475
RightFoot  4.51297 -0.491795 3.75755
RightToes  -1.74624e-010 0 -3.6325e-017
Spine  3.04955 -0.956608 1.85085
Spine1  12.6211 -0.410382 -2.48841
HEad  -0.902008 -8.89519 -4.12351
LeftShoulder1  8.29599 -11.5895 -47.97
LeftArm  -10.03 18.3764 -28.9076
LeftForeArm  26.1076 -28.8241 -4.81215
LeftHand  -0.244104 0.0205437 5.32207
RightShoulder  6.53641 9.6903 43.1839
RightArm  4.77118 -19.4279 31.4041
RightForeArm  5.85373 12.9957 7.91924
RightHand  -0.925723 1.82353 -15.0172
LeftUpLeg  -0.988587 5.42377 -10.538
LeftLeg  14.3248 11.8939 1.30113
LeftFoot  -8.58561 -0.351656 16.653
LeftToes  1.71891e-010 -1.5102e-010 2.10556e-011
75
root  -13.673 39.8213 -37.5761 0.843394 -72.0355 -9.31587
RightUpLeg  -18.4722 2.05073 -7.98654
RightLeg  48.6838 -4.22228 -5.43489
RightFoot  2.06806 -0.493592 4.34382
RightToes  -1.74624e-010 0 -3.6325e-017
Spine  3.3577 -1.59388 0.78638
Spine1  12.853 -1.68098 -0.834665
HEad  -0.608515 -10.5023 -3.66617
LeftShoulder1  8.34393 -11.5983 -48.2215
LeftArm  -9.66323 15.8686 -29.135
LeftForeArm  27.813 -32.846 -5.6697
LeftHand  -0.244104 0.0205437 5.32207
RightShoulder  6.41125 9.52433 42.8782
RightArm  7.20759 -21.3075 30.7178
RightForeArm  1.28664 15.2546 7.38676
RightHand  -0.953899 1.9452 -15.2175
LeftUpLeg  2.49574 3.55356 -9.63637
LeftLeg  13.7021 10.0718 0.501527
LeftFoot  -9.95921 -0.144599 16.8059
LeftToes  1.71891e-010 -1.5102e-010 2.10556e-011
76
root  -15.1284 39.7803 -37.279 0.336704 -68.0288 -8.76984
RightUpLeg  -18.4907 1.60504 -8.40807
RightLeg  36.8386 -5.46561 -4.65481
RightFoot  0.434362 -0.636086 6.16794
RightToes  -1.74624e-010 0 -3.6325e-017
Spine  2.88387 -2.21997 -1.02649
Spine1  13.1886 -2.92126 0.641021
HEad  -0.401418 -12.1407 -3.04746
LeftShoulder1  8.37769 -11.6638 -48.2081
LeftArm  -9.14223 13.4473 -29.4644
LeftForeArm  29.2016 -35.9961 -6.39614
LeftHand  -0.244104 0.0205437 5.32207
RightShoulder  6.30327 9.38225 42.604
RightArm  7.12928 -22.2314 30.3879
RightForeArm  2.0675 15.4986 7.18566
RightHand  -0.983642 2.09243 -15.3867
LeftUpLeg  4.75975 2.66604 -9.12628
LeftLeg  14.7003 7.21976 0.366626
LeftFoot  -12.01 0.171198 16.6939
LeftToes  1.71891e-010 -1.5102e-010 2.10556e-011
77
root  -16.642 39.676 -36.9318 0.236797 -64.3189 -8.03534
RightUpLeg  -18.2057 0.553806 -8.86884
RightLeg  23.7429 -3.90743 -2.17488
RightFoot  0.116977 -0.798408 7.943
RightToes  -1.74624e-010 0 -3.6325e-017
Spine  1.87175 -2.73573 -2.79414
Spine1  13.1333 -3.89075 2.16738
HEad  0.106219 -14.1117 -2.27857
LeftShoulder1  8.36542 -11.7374 -47.9022
LeftArm  -8.57412 11.4185 -30.0501
LeftForeArm  30.5697 -38.2402 -6.93019
LeftHand  -0.244104 0.0205437 5.32207
RightShoulder  6.20148 9.2377 42.3777
RightArm  5.1999 -22.5428 30.1463
RightForeArm  5.39244 13.9373 7.51509
RightHand  -0.971695 2.14665 -15.097
LeftUpLeg  6.63068 2.29192 -8.5376
LeftLeg  15.4395 4.1387 0.173324
LeftFoot  -14.3466 0.528907 16.7178
LeftToes  1.71891e-010 -1.5102e-010 2.10556e-011
